<?xml version="1.0" encoding="UTF-8" standalone="no"?>
<!-- Created with Inkscape (http://www.inkscape.org/) -->

<svg
   width="183.40332mm"
   height="183.40332mm"
   viewBox="0 0 183.40332 183.40332"
   version="1.1"
   id="svg1"
   xml:space="preserve"
   xmlns:inkscape="http://www.inkscape.org/namespaces/inkscape"
   xmlns:sodipodi="http://sodipodi.sourceforge.net/DTD/sodipodi-0.dtd"
   xmlns:xlink="http://www.w3.org/1999/xlink"
   xmlns="http://www.w3.org/2000/svg"
   xmlns:svg="http://www.w3.org/2000/svg"><sodipodi:namedview
     id="namedview1"
     pagecolor="#ffffff"
     bordercolor="#000000"
     borderopacity="0.25"
     inkscape:showpageshadow="2"
     inkscape:pageopacity="0.0"
     inkscape:pagecheckerboard="0"
     inkscape:deskcolor="#d1d1d1"
     inkscape:document-units="mm"
     inkscape:export-bgcolor="#ffffff00" /><defs
     id="defs1"><linearGradient
       id="linearGradient75"
       inkscape:collect="always"><stop
         style="stop-color:#00ffff;stop-opacity:1"
         offset="0"
         id="stop74" /><stop
         style="stop-color:#ff00ff;stop-opacity:1"
         offset="1"
         id="stop75" /></linearGradient><linearGradient
       id="linearGradient73"
       inkscape:collect="always"><stop
         style="stop-color:#00ffff;stop-opacity:1"
         offset="0"
         id="stop72" /><stop
         style="stop-color:#ff00ff;stop-opacity:1"
         offset="1"
         id="stop73" /></linearGradient><linearGradient
       id="linearGradient61"
       inkscape:collect="always"><stop
         style="stop-color:#0000ff;stop-opacity:1"
         offset="0"
         id="stop61" /><stop
         style="stop-color:#ff00ff;stop-opacity:1"
         offset="1"
         id="stop62" /></linearGradient><linearGradient
       id="linearGradient58"
       inkscape:collect="always"><stop
         style="stop-color:#aaeeff;stop-opacity:1"
         offset="0"
         id="stop58" /><stop
         style="stop-color:#5599ff;stop-opacity:1"
         offset="1"
         id="stop59" /></linearGradient><linearGradient
       id="linearGradient53"
       inkscape:collect="always"><stop
         style="stop-color:#0066ff;stop-opacity:1"
         offset="0"
         id="stop52" /><stop
         style="stop-color:#ff00ff;stop-opacity:1"
         offset="1"
         id="stop53" /></linearGradient><linearGradient
       inkscape:collect="always"
       xlink:href="#linearGradient53"
       id="linearGradient54"
       gradientUnits="userSpaceOnUse"
       gradientTransform="matrix(-1,0,0,1,209.87594,13.250358)"
       x1="48.909489"
       y1="132.64975"
       x2="195.64413"
       y2="134.45123" /><linearGradient
       inkscape:collect="always"
       xlink:href="#linearGradient53"
       id="linearGradient55"
       gradientUnits="userSpaceOnUse"
       gradientTransform="matrix(-1,0,0,1,209.87594,13.250358)"
       x1="48.909489"
       y1="132.64975"
       x2="195.64413"
       y2="134.45123" /><linearGradient
       inkscape:collect="always"
       xlink:href="#linearGradient58"
       id="linearGradient59"
       x1="318.62964"
       y1="97.463287"
       x2="319.53519"
       y2="140.1454"
       gradientUnits="userSpaceOnUse"
       gradientTransform="translate(-237.41173,26.999951)" /><linearGradient
       inkscape:collect="always"
       xlink:href="#linearGradient61"
       id="linearGradient62"
       x1="258.72107"
       y1="108.98141"
       x2="255.81453"
       y2="194.38249"
       gradientUnits="userSpaceOnUse"
       gradientTransform="translate(-173.71017,-7.6767446)" /><linearGradient
       inkscape:collect="always"
       xlink:href="#linearGradient53"
       id="linearGradient65"
       gradientUnits="userSpaceOnUse"
       gradientTransform="matrix(-1,0,0,1,340.98825,124.50737)"
       x1="48.909489"
       y1="132.64975"
       x2="195.64413"
       y2="134.45123" /><linearGradient
       inkscape:collect="always"
       xlink:href="#linearGradient53"
       id="linearGradient66"
       gradientUnits="userSpaceOnUse"
       gradientTransform="matrix(-1,0,0,1,340.98825,124.50737)"
       x1="48.909489"
       y1="132.64975"
       x2="195.64413"
       y2="134.45123" /><linearGradient
       inkscape:collect="always"
       xlink:href="#linearGradient75"
       id="linearGradient71"
       gradientUnits="userSpaceOnUse"
       gradientTransform="matrix(0.76790866,0,0,0.76790866,-28.061425,47.397101)"
       x1="48.909489"
       y1="132.64975"
       x2="195.64413"
       y2="134.45123" /><linearGradient
       inkscape:collect="always"
       xlink:href="#linearGradient73"
       id="linearGradient72"
       gradientUnits="userSpaceOnUse"
       gradientTransform="matrix(0.76790866,0,0,0.76790866,-28.061425,47.397101)"
       x1="48.909489"
       y1="132.64975"
       x2="195.64413"
       y2="134.45123" /><linearGradient
       inkscape:collect="always"
       xlink:href="#linearGradient61"
       id="linearGradient142"
       gradientUnits="userSpaceOnUse"
       gradientTransform="translate(-103.86013,-7.6767446)"
       x1="258.72107"
       y1="108.98141"
       x2="255.81453"
       y2="194.38249" /><linearGradient
       inkscape:collect="always"
       xlink:href="#linearGradient58"
       id="linearGradient143"
       gradientUnits="userSpaceOnUse"
       gradientTransform="translate(-167.56169,26.999951)"
       x1="318.62964"
       y1="97.463287"
       x2="319.53519"
       y2="140.1454" /><linearGradient
       inkscape:collect="always"
       xlink:href="#linearGradient53"
       id="linearGradient206"
       gradientUnits="userSpaceOnUse"
       gradientTransform="matrix(-1,0,0,1,340.98825,124.50737)"
       x1="48.909489"
       y1="132.64975"
       x2="195.64413"
       y2="134.45123" /><linearGradient
       inkscape:collect="always"
       xlink:href="#linearGradient53"
       id="linearGradient207"
       gradientUnits="userSpaceOnUse"
       gradientTransform="matrix(-1,0,0,1,340.98825,124.50737)"
       x1="48.909489"
       y1="132.64975"
       x2="195.64413"
       y2="134.45123" /><linearGradient
       inkscape:collect="always"
       xlink:href="#linearGradient53"
       id="linearGradient208"
       gradientUnits="userSpaceOnUse"
       gradientTransform="matrix(-1,0,0,1,340.98825,124.50737)"
       x1="48.909489"
       y1="132.64975"
       x2="195.64413"
       y2="134.45123" /><linearGradient
       inkscape:collect="always"
       xlink:href="#linearGradient53"
       id="linearGradient209"
       gradientUnits="userSpaceOnUse"
       gradientTransform="matrix(-1,0,0,1,340.98825,124.50737)"
       x1="48.909489"
       y1="132.64975"
       x2="195.64413"
       y2="134.45123" /></defs><g
     inkscape:label="Layer 1"
     inkscape:groupmode="layer"
     id="layer1"
     transform="translate(78.403322,-84.527601)"><circle
       style="fill:#ececec;fill-opacity:0.980392;stroke:none;stroke-width:0;stroke-dasharray:none;stroke-opacity:1"
       id="path209"
       cx="13.29834"
       cy="176.22926"
       r="91.70166"
       inkscape:export-filename="./path209.png"
       inkscape:export-xdpi="96"
       inkscape:export-ydpi="96" /><g
       id="g209"
       transform="translate(-95.851632,21.466556)"><path
         d="m 143.12689,140.28035 a 10.067,10.067 0 0 0 -9.04338,10.99571 10.067,10.067 0 0 0 10.99571,9.04337 10.067,10.067 0 0 0 9.04338,-10.99571 10.067,10.067 0 0 0 -10.99571,-9.04337 z"
         style="fill:url(#linearGradient143);stroke-width:0"
         id="path141"
         inkscape:export-filename="path141.png"
         inkscape:export-xdpi="96"
         inkscape:export-ydpi="96" /><path
         d="m 142.71348,136.04081 a 14.326487,14.326487 0 0 0 -12.8695,15.64814 14.326487,14.326487 0 0 0 15.64814,12.87002 14.326487,14.326487 0 0 0 12.8695,-15.64814 14.326487,14.326487 0 0 0 -15.64814,-12.87002 z m 0.41341,4.23954 a 10.067,10.067 0 0 1 10.99571,9.04337 10.067,10.067 0 0 1 -9.04338,10.99571 10.067,10.067 0 0 1 -10.99571,-9.04337 10.067,10.067 0 0 1 9.04338,-10.99571 z"
         style="fill:url(#linearGradient142);stroke-width:0"
         id="path142" /><path
         d="m 40.723405,151.10604 a 33.533038,33.533038 0 0 0 33.52922,33.43052 v -4.58732 a 28.946045,28.946045 0 0 1 -28.93571,-28.8432 z"
         style="fill:url(#linearGradient71);fill-opacity:0.843137;stroke:url(#linearGradient72);stroke-width:0"
         id="path137" /><path
         d="m 73.276455,140.28035 a 10.067,10.067 0 0 0 -9.04338,10.99571 10.067,10.067 0 0 0 10.99571,9.04337 10.067,10.067 0 0 0 9.04338,-10.99571 10.067,10.067 0 0 0 -10.99571,-9.04337 z"
         style="fill:url(#linearGradient59);stroke-width:0"
         id="path136" /><path
         d="m 72.863045,136.04081 a 14.326487,14.326487 0 0 0 -12.8695,15.64814 14.326487,14.326487 0 0 0 15.64814,12.87002 14.326487,14.326487 0 0 0 12.8695,-15.64814 14.326487,14.326487 0 0 0 -15.64814,-12.87002 z m 0.41341,4.23954 a 10.067,10.067 0 0 1 10.99571,9.04337 10.067,10.067 0 0 1 -9.04338,10.99571 10.067,10.067 0 0 1 -10.99571,-9.04337 10.067,10.067 0 0 1 9.04338,-10.99571 z"
         style="fill:url(#linearGradient62);stroke-width:0"
         id="path134" /><path
         d="m 105.77731,170.92137 a 43.668001,43.668001 0 0 0 3.46593,5.4777 43.668001,43.668001 0 0 0 3.36982,-5.27823 37.694646,37.694646 0 0 1 -3.47058,-6.5536 37.694646,37.694646 0 0 1 -0.007,-0.0243 37.694646,37.694646 0 0 1 -3.35793,6.37842 z"
         style="fill:url(#linearGradient206);fill-opacity:0.843137;stroke:url(#linearGradient207);stroke-width:0"
         id="path132" /><path
         d="m 105.77731,170.92137 a 37.694646,37.694646 0 0 0 3.35793,-6.37842 A 37.694646,37.694646 0 0 1 106.50646,148.5 h -5.97638 a 43.668001,43.668001 0 0 0 3.08353,18.3286 43.668001,43.668001 0 0 0 2.1637,4.09277 z"
         style="fill:url(#linearGradient208);fill-opacity:0.843137;stroke:url(#linearGradient209);stroke-width:0"
         id="path131" /><path
         d="m 52.374365,119.79994 a 74.42981,57.284744 0 0 1 -4.35218,-4.24263 43.668001,43.668001 0 0 0 -17.23203,38.97695 43.668001,43.668001 0 0 0 47.69632,39.22809 43.668001,43.668001 0 0 0 30.756765,-17.36328 43.668001,43.668001 0 0 1 -3.46593,-5.4777 37.694646,37.694646 0 0 1 -27.870135,16.89561 37.694646,37.694646 0 0 1 -41.17164,-33.86202 37.694646,37.694646 0 0 1 15.63883,-34.15502 z"
         style="fill:url(#linearGradient54);fill-opacity:0.843137;stroke:url(#linearGradient55);stroke-width:0"
         id="path130" /><path
         d="m 170.24366,115.58108 a 74.42981,57.284744 0 0 1 -4.2814,4.17235 37.694646,37.694646 0 0 1 12.96045,16.27911 37.694646,37.694646 0 0 1 -20.62251,49.15773 37.694646,37.694646 0 0 1 -45.68714,-14.06943 43.668001,43.668001 0 0 1 -3.36982,5.27823 43.668001,43.668001 0 0 0 51.3178,14.32006 43.668001,43.668001 0 0 0 23.89053,-56.94743 43.668001,43.668001 0 0 0 -14.20791,-18.19062 z"
         style="fill:url(#linearGradient65);fill-opacity:0.843137;stroke:url(#linearGradient66);stroke-width:0"
         id="path129" /><use
         x="0"
         y="0"
         xlink:href="#path141"
         id="use143" /><use
         x="0"
         y="0"
         xlink:href="#path142"
         id="use144" /><use
         x="0"
         y="0"
         xlink:href="#path137"
         id="use145" /><use
         x="0"
         y="0"
         xlink:href="#path136"
         id="use146" /><use
         x="0"
         y="0"
         xlink:href="#path134"
         id="use147" /><use
         x="0"
         y="0"
         xlink:href="#path132"
         id="use148" /><use
         x="0"
         y="0"
         xlink:href="#path131"
         id="use149" /><use
         x="0"
         y="0"
         xlink:href="#path130"
         id="use150" /><use
         x="0"
         y="0"
         xlink:href="#path129"
         id="use151" /><use
         x="0"
         y="0"
         xlink:href="#use143"
         id="use152" /><use
         x="0"
         y="0"
         xlink:href="#use144"
         id="use153" /><use
         x="0"
         y="0"
         xlink:href="#use145"
         id="use154" /><use
         x="0"
         y="0"
         xlink:href="#use146"
         id="use155" /><use
         x="0"
         y="0"
         xlink:href="#use147"
         id="use156" /><use
         x="0"
         y="0"
         xlink:href="#use148"
         id="use157" /><use
         x="0"
         y="0"
         xlink:href="#use149"
         id="use158" /><use
         x="0"
         y="0"
         xlink:href="#use150"
         id="use159" /><use
         x="0"
         y="0"
         xlink:href="#use151"
         id="use160" /><use
         x="0"
         y="0"
         xlink:href="#use152"
         id="use161" /><use
         x="0"
         y="0"
         xlink:href="#use153"
         id="use162" /><use
         x="0"
         y="0"
         xlink:href="#use154"
         id="use163" /><use
         x="0"
         y="0"
         xlink:href="#use155"
         id="use164" /><use
         x="0"
         y="0"
         xlink:href="#use156"
         id="use165" /><use
         x="0"
         y="0"
         xlink:href="#use157"
         id="use166" /><use
         x="0"
         y="0"
         xlink:href="#use158"
         id="use167" /><use
         x="0"
         y="0"
         xlink:href="#use159"
         id="use168" /><use
         x="0"
         y="0"
         xlink:href="#use160"
         id="use169" /><use
         x="0"
         y="0"
         xlink:href="#use161"
         id="use170" /><use
         x="0"
         y="0"
         xlink:href="#use162"
         id="use171" /><use
         x="0"
         y="0"
         xlink:href="#use163"
         id="use172" /><use
         x="0"
         y="0"
         xlink:href="#use164"
         id="use173" /><use
         x="0"
         y="0"
         xlink:href="#use165"
         id="use174" /><use
         x="0"
         y="0"
         xlink:href="#use166"
         id="use175" /><use
         x="0"
         y="0"
         xlink:href="#use167"
         id="use176" /><use
         x="0"
         y="0"
         xlink:href="#use168"
         id="use177" /><use
         x="0"
         y="0"
         xlink:href="#use169"
         id="use178" /><use
         x="0"
         y="0"
         xlink:href="#use170"
         id="use179" /><use
         x="0"
         y="0"
         xlink:href="#use171"
         id="use180" /><use
         x="0"
         y="0"
         xlink:href="#use172"
         id="use181" /><use
         x="0"
         y="0"
         xlink:href="#use173"
         id="use182" /><use
         x="0"
         y="0"
         xlink:href="#use174"
         id="use183" /><use
         x="0"
         y="0"
         xlink:href="#use175"
         id="use184" /><use
         x="0"
         y="0"
         xlink:href="#use176"
         id="use185" /><use
         x="0"
         y="0"
         xlink:href="#use177"
         id="use186" /><use
         x="0"
         y="0"
         xlink:href="#use178"
         id="use187" /><use
         x="0"
         y="0"
         xlink:href="#use179"
         id="use188" /><use
         x="0"
         y="0"
         xlink:href="#use180"
         id="use189" /><use
         x="0"
         y="0"
         xlink:href="#use181"
         id="use190" /><use
         x="0"
         y="0"
         xlink:href="#use182"
         id="use191" /><use
         x="0"
         y="0"
         xlink:href="#use183"
         id="use192" /><use
         x="0"
         y="0"
         xlink:href="#use184"
         id="use193" /><use
         x="0"
         y="0"
         xlink:href="#use185"
         id="use194" /><use
         x="0"
         y="0"
         xlink:href="#use186"
         id="use195" /><use
         x="0"
         y="0"
         xlink:href="#use187"
         id="use196" /></g></g></svg>
